<?xml version="1.0" encoding="UTF-8" standalone="no"?>
<!DOCTYPE svg PUBLIC "-//W3C//DTD SVG 1.1//EN"
 "http://www.w3.org/Graphics/SVG/1.1/DTD/svg11.dtd">
<!-- Generated by graphviz version 16.0.0 (20260814.1018)
 -->
<!-- Title: artifact_provenance Pages: 1 -->
<svg width="9244pt" height="114pt"
 viewBox="0.00 0.00 9244.00 114.00" xmlns="http://www.w3.org/2000/svg" xmlns:xlink="http://www.w3.org/1999/xlink">
<g id="graph0" class="graph" transform="scale(1 1) rotate(0) translate(4 110)">
<title>artifact_provenance</title>
<polygon fill="white" stroke="none" points="-4,4 -4,-110 9240.25,-110 9240.25,4 -4,4"/>
<text xml:space="preserve" text-anchor="middle" x="4618.12" y="-88.7" font-family="Helvetica,sans-Serif" font-size="14.00">Artifact provenance</text>
<!-- n0 -->
<g id="node1" class="node">
<title>n0</title>
<path fill="#dff0d8" stroke="black" d="M256.75,-75.5C256.75,-75.5 12,-75.5 12,-75.5 6,-75.5 0,-69.5 0,-63.5 0,-63.5 0,-19.5 0,-19.5 0,-13.5 6,-7.5 12,-7.5 12,-7.5 256.75,-7.5 256.75,-7.5 262.75,-7.5 268.75,-13.5 268.75,-19.5 268.75,-19.5 268.75,-63.5 268.75,-63.5 268.75,-69.5 262.75,-75.5 256.75,-75.5"/>
<text xml:space="preserve" text-anchor="middle" x="134.38" y="-58.2" font-family="Helvetica,sans-Serif" font-size="14.00">artifact 0</text>
<text xml:space="preserve" text-anchor="middle" x="134.38" y="-43.2" font-family="Helvetica,sans-Serif" font-size="14.00">/Users/alex/areas/productive/orchestration</text>
<text xml:space="preserve" text-anchor="middle" x="134.38" y="-28.2" font-family="Helvetica,sans-Serif" font-size="14.00">operation: input</text>
<text xml:space="preserve" text-anchor="middle" x="134.38" y="-13.2" font-family="Helvetica,sans-Serif" font-size="14.00">flow_kind: entry</text>
</g>
<!-- n1 -->
<g id="node2" class="node">
<title>n1</title>
<path fill="#ffffff" stroke="black" d="M701,-75.5C701,-75.5 316.75,-75.5 316.75,-75.5 310.75,-75.5 304.75,-69.5 304.75,-63.5 304.75,-63.5 304.75,-19.5 304.75,-19.5 304.75,-13.5 310.75,-7.5 316.75,-7.5 316.75,-7.5 701,-7.5 701,-7.5 707,-7.5 713,-13.5 713,-19.5 713,-19.5 713,-63.5 713,-63.5 713,-69.5 707,-75.5 701,-75.5"/>
<text xml:space="preserve" text-anchor="middle" x="508.88" y="-58.2" font-family="Helvetica,sans-Serif" font-size="14.00">artifact 1</text>
<text xml:space="preserve" text-anchor="middle" x="508.88" y="-43.2" font-family="Helvetica,sans-Serif" font-size="14.00">/Users/alex/areas/productive/orchestration/run&#45;4Lja346d/artifact&#45;1</text>
<text xml:space="preserve" text-anchor="middle" x="508.88" y="-28.2" font-family="Helvetica,sans-Serif" font-size="14.00">operation: raw</text>
<text xml:space="preserve" text-anchor="middle" x="508.88" y="-13.2" font-family="Helvetica,sans-Serif" font-size="14.00">flow_kind: fk_raw</text>
</g>
<!-- n0&#45;&gt;n1 -->
<g id="edge1" class="edge">
<title>n0&#45;&gt;n1</title>
<path fill="none" stroke="#555555" d="M269.07,-41.5C277.93,-41.5 286.97,-41.5 296.1,-41.5"/>
<polygon fill="#555555" stroke="#555555" points="295.98,-43.95 302.98,-41.5 295.98,-39.05 295.98,-43.95"/>
</g>
<!-- n2 -->
<g id="node3" class="node">
<title>n2</title>
<path fill="#ffffff" stroke="black" d="M1145.25,-83C1145.25,-83 761,-83 761,-83 755,-83 749,-77 749,-71 749,-71 749,-12 749,-12 749,-6 755,0 761,0 761,0 1145.25,0 1145.25,0 1151.25,0 1157.25,-6 1157.25,-12 1157.25,-12 1157.25,-71 1157.25,-71 1157.25,-77 1151.25,-83 1145.25,-83"/>
<text xml:space="preserve" text-anchor="middle" x="953.12" y="-65.7" font-family="Helvetica,sans-Serif" font-size="14.00">artifact 2</text>
<text xml:space="preserve" text-anchor="middle" x="953.12" y="-50.7" font-family="Helvetica,sans-Serif" font-size="14.00">/Users/alex/areas/productive/orchestration/run&#45;4Lja346d/artifact&#45;2</text>
<text xml:space="preserve" text-anchor="middle" x="953.12" y="-35.7" font-family="Helvetica,sans-Serif" font-size="14.00">operation: model</text>
<text xml:space="preserve" text-anchor="middle" x="953.12" y="-20.7" font-family="Helvetica,sans-Serif" font-size="14.00">flow_kind: fk_model</text>
<text xml:space="preserve" text-anchor="middle" x="953.12" y="-5.7" font-family="Helvetica,sans-Serif" font-size="14.00">request_id: i:0</text>
</g>
<!-- n1&#45;&gt;n2 -->
<g id="edge2" class="edge">
<title>n1&#45;&gt;n2</title>
<path fill="none" stroke="#555555" d="M713.2,-41.5C722.23,-41.5 731.31,-41.5 740.36,-41.5"/>
<polygon fill="#555555" stroke="#555555" points="740.15,-43.95 747.15,-41.5 740.15,-39.05 740.15,-43.95"/>
</g>
<!-- n3 -->
<g id="node4" class="node">
<title>n3</title>
<path fill="#ffffff" stroke="black" d="M1589.5,-75.5C1589.5,-75.5 1205.25,-75.5 1205.25,-75.5 1199.25,-75.5 1193.25,-69.5 1193.25,-63.5 1193.25,-63.5 1193.25,-19.5 1193.25,-19.5 1193.25,-13.5 1199.25,-7.5 1205.25,-7.5 1205.25,-7.5 1589.5,-7.5 1589.5,-7.5 1595.5,-7.5 1601.5,-13.5 1601.5,-19.5 1601.5,-19.5 1601.5,-63.5 1601.5,-63.5 1601.5,-69.5 1595.5,-75.5 1589.5,-75.5"/>
<text xml:space="preserve" text-anchor="middle" x="1397.38" y="-58.2" font-family="Helvetica,sans-Serif" font-size="14.00">artifact 3</text>
<text xml:space="preserve" text-anchor="middle" x="1397.38" y="-43.2" font-family="Helvetica,sans-Serif" font-size="14.00">/Users/alex/areas/productive/orchestration/run&#45;4Lja346d/artifact&#45;3</text>
<text xml:space="preserve" text-anchor="middle" x="1397.38" y="-28.2" font-family="Helvetica,sans-Serif" font-size="14.00">operation: raw</text>
<text xml:space="preserve" text-anchor="middle" x="1397.38" y="-13.2" font-family="Helvetica,sans-Serif" font-size="14.00">flow_kind: fk_raw</text>
</g>
<!-- n2&#45;&gt;n3 -->
<g id="edge3" class="edge">
<title>n2&#45;&gt;n3</title>
<path fill="none" stroke="#555555" d="M1157.45,-41.5C1166.48,-41.5 1175.56,-41.5 1184.61,-41.5"/>
<polygon fill="#555555" stroke="#555555" points="1184.4,-43.95 1191.4,-41.5 1184.4,-39.05 1184.4,-43.95"/>
</g>
<!-- n4 -->
<g id="node5" class="node">
<title>n4</title>
<path fill="#ffffff" stroke="black" d="M2033.75,-83C2033.75,-83 1649.5,-83 1649.5,-83 1643.5,-83 1637.5,-77 1637.5,-71 1637.5,-71 1637.5,-12 1637.5,-12 1637.5,-6 1643.5,0 1649.5,0 1649.5,0 2033.75,0 2033.75,0 2039.75,0 2045.75,-6 2045.75,-12 2045.75,-12 2045.75,-71 2045.75,-71 2045.75,-77 2039.75,-83 2033.75,-83"/>
<text xml:space="preserve" text-anchor="middle" x="1841.62" y="-65.7" font-family="Helvetica,sans-Serif" font-size="14.00">artifact 4</text>
<text xml:space="preserve" text-anchor="middle" x="1841.62" y="-50.7" font-family="Helvetica,sans-Serif" font-size="14.00">/Users/alex/areas/productive/orchestration/run&#45;4Lja346d/artifact&#45;4</text>
<text xml:space="preserve" text-anchor="middle" x="1841.62" y="-35.7" font-family="Helvetica,sans-Serif" font-size="14.00">operation: model</text>
<text xml:space="preserve" text-anchor="middle" x="1841.62" y="-20.7" font-family="Helvetica,sans-Serif" font-size="14.00">flow_kind: fk_model</text>
<text xml:space="preserve" text-anchor="middle" x="1841.62" y="-5.7" font-family="Helvetica,sans-Serif" font-size="14.00">request_id: i:1</text>
</g>
<!-- n3&#45;&gt;n4 -->
<g id="edge4" class="edge">
<title>n3&#45;&gt;n4</title>
<path fill="none" stroke="#555555" d="M1601.7,-41.5C1610.73,-41.5 1619.81,-41.5 1628.86,-41.5"/>
<polygon fill="#555555" stroke="#555555" points="1628.65,-43.95 1635.65,-41.5 1628.65,-39.05 1628.65,-43.95"/>
</g>
<!-- n5 -->
<g id="node6" class="node">
<title>n5</title>
<path fill="#ffffff" stroke="black" d="M2478,-75.5C2478,-75.5 2093.75,-75.5 2093.75,-75.5 2087.75,-75.5 2081.75,-69.5 2081.75,-63.5 2081.75,-63.5 2081.75,-19.5 2081.75,-19.5 2081.75,-13.5 2087.75,-7.5 2093.75,-7.5 2093.75,-7.5 2478,-7.5 2478,-7.5 2484,-7.5 2490,-13.5 2490,-19.5 2490,-19.5 2490,-63.5 2490,-63.5 2490,-69.5 2484,-75.5 2478,-75.5"/>
<text xml:space="preserve" text-anchor="middle" x="2285.88" y="-58.2" font-family="Helvetica,sans-Serif" font-size="14.00">artifact 5</text>
<text xml:space="preserve" text-anchor="middle" x="2285.88" y="-43.2" font-family="Helvetica,sans-Serif" font-size="14.00">/Users/alex/areas/productive/orchestration/run&#45;4Lja346d/artifact&#45;5</text>
<text xml:space="preserve" text-anchor="middle" x="2285.88" y="-28.2" font-family="Helvetica,sans-Serif" font-size="14.00">operation: raw</text>
<text xml:space="preserve" text-anchor="middle" x="2285.88" y="-13.2" font-family="Helvetica,sans-Serif" font-size="14.00">flow_kind: fk_raw</text>
</g>
<!-- n4&#45;&gt;n5 -->
<g id="edge5" class="edge">
<title>n4&#45;&gt;n5</title>
<path fill="none" stroke="#555555" d="M2045.95,-41.5C2054.98,-41.5 2064.06,-41.5 2073.11,-41.5"/>
<polygon fill="#555555" stroke="#555555" points="2072.9,-43.95 2079.9,-41.5 2072.9,-39.05 2072.9,-43.95"/>
</g>
<!-- n6 -->
<g id="node7" class="node">
<title>n6</title>
<path fill="#ffffff" stroke="black" d="M2922.25,-83C2922.25,-83 2538,-83 2538,-83 2532,-83 2526,-77 2526,-71 2526,-71 2526,-12 2526,-12 2526,-6 2532,0 2538,0 2538,0 2922.25,0 2922.25,0 2928.25,0 2934.25,-6 2934.25,-12 2934.25,-12 2934.25,-71 2934.25,-71 2934.25,-77 2928.25,-83 2922.25,-83"/>
<text xml:space="preserve" text-anchor="middle" x="2730.12" y="-65.7" font-family="Helvetica,sans-Serif" font-size="14.00">artifact 6</text>
<text xml:space="preserve" text-anchor="middle" x="2730.12" y="-50.7" font-family="Helvetica,sans-Serif" font-size="14.00">/Users/alex/areas/productive/orchestration/run&#45;4Lja346d/artifact&#45;6</text>
<text xml:space="preserve" text-anchor="middle" x="2730.12" y="-35.7" font-family="Helvetica,sans-Serif" font-size="14.00">operation: model</text>
<text xml:space="preserve" text-anchor="middle" x="2730.12" y="-20.7" font-family="Helvetica,sans-Serif" font-size="14.00">flow_kind: fk_model</text>
<text xml:space="preserve" text-anchor="middle" x="2730.12" y="-5.7" font-family="Helvetica,sans-Serif" font-size="14.00">request_id: i:2</text>
</g>
<!-- n5&#45;&gt;n6 -->
<g id="edge6" class="edge">
<title>n5&#45;&gt;n6</title>
<path fill="none" stroke="#555555" d="M2490.2,-41.5C2499.23,-41.5 2508.31,-41.5 2517.36,-41.5"/>
<polygon fill="#555555" stroke="#555555" points="2517.15,-43.95 2524.15,-41.5 2517.15,-39.05 2517.15,-43.95"/>
</g>
<!-- n7 -->
<g id="node8" class="node">
<title>n7</title>
<path fill="#ffffff" stroke="black" d="M3366.5,-75.5C3366.5,-75.5 2982.25,-75.5 2982.25,-75.5 2976.25,-75.5 2970.25,-69.5 2970.25,-63.5 2970.25,-63.5 2970.25,-19.5 2970.25,-19.5 2970.25,-13.5 2976.25,-7.5 2982.25,-7.5 2982.25,-7.5 3366.5,-7.5 3366.5,-7.5 3372.5,-7.5 3378.5,-13.5 3378.5,-19.5 3378.5,-19.5 3378.5,-63.5 3378.5,-63.5 3378.5,-69.5 3372.5,-75.5 3366.5,-75.5"/>
<text xml:space="preserve" text-anchor="middle" x="3174.38" y="-58.2" font-family="Helvetica,sans-Serif" font-size="14.00">artifact 7</text>
<text xml:space="preserve" text-anchor="middle" x="3174.38" y="-43.2" font-family="Helvetica,sans-Serif" font-size="14.00">/Users/alex/areas/productive/orchestration/run&#45;4Lja346d/artifact&#45;7</text>
<text xml:space="preserve" text-anchor="middle" x="3174.38" y="-28.2" font-family="Helvetica,sans-Serif" font-size="14.00">operation: raw</text>
<text xml:space="preserve" text-anchor="middle" x="3174.38" y="-13.2" font-family="Helvetica,sans-Serif" font-size="14.00">flow_kind: fk_raw</text>
</g>
<!-- n6&#45;&gt;n7 -->
<g id="edge7" class="edge">
<title>n6&#45;&gt;n7</title>
<path fill="none" stroke="#555555" d="M2934.45,-41.5C2943.48,-41.5 2952.56,-41.5 2961.61,-41.5"/>
<polygon fill="#555555" stroke="#555555" points="2961.4,-43.95 2968.4,-41.5 2961.4,-39.05 2961.4,-43.95"/>
</g>
<!-- n8 -->
<g id="node9" class="node">
<title>n8</title>
<path fill="#ffffff" stroke="black" d="M3810.75,-75.5C3810.75,-75.5 3426.5,-75.5 3426.5,-75.5 3420.5,-75.5 3414.5,-69.5 3414.5,-63.5 3414.5,-63.5 3414.5,-19.5 3414.5,-19.5 3414.5,-13.5 3420.5,-7.5 3426.5,-7.5 3426.5,-7.5 3810.75,-7.5 3810.75,-7.5 3816.75,-7.5 3822.75,-13.5 3822.75,-19.5 3822.75,-19.5 3822.75,-63.5 3822.75,-63.5 3822.75,-69.5 3816.75,-75.5 3810.75,-75.5"/>
<text xml:space="preserve" text-anchor="middle" x="3618.62" y="-58.2" font-family="Helvetica,sans-Serif" font-size="14.00">artifact 8</text>
<text xml:space="preserve" text-anchor="middle" x="3618.62" y="-43.2" font-family="Helvetica,sans-Serif" font-size="14.00">/Users/alex/areas/productive/orchestration/run&#45;4Lja346d/artifact&#45;8</text>
<text xml:space="preserve" text-anchor="middle" x="3618.62" y="-28.2" font-family="Helvetica,sans-Serif" font-size="14.00">operation: raw</text>
<text xml:space="preserve" text-anchor="middle" x="3618.62" y="-13.2" font-family="Helvetica,sans-Serif" font-size="14.00">flow_kind: fk_raw</text>
</g>
<!-- n7&#45;&gt;n8 -->
<g id="edge8" class="edge">
<title>n7&#45;&gt;n8</title>
<path fill="none" stroke="#555555" d="M3378.7,-41.5C3387.73,-41.5 3396.81,-41.5 3405.86,-41.5"/>
<polygon fill="#555555" stroke="#555555" points="3405.65,-43.95 3412.65,-41.5 3405.65,-39.05 3405.65,-43.95"/>
</g>
<!-- n9 -->
<g id="node10" class="node">
<title>n9</title>
<path fill="#ffffff" stroke="black" d="M4255,-83C4255,-83 3870.75,-83 3870.75,-83 3864.75,-83 3858.75,-77 3858.75,-71 3858.75,-71 3858.75,-12 3858.75,-12 3858.75,-6 3864.75,0 3870.75,0 3870.75,0 4255,0 4255,0 4261,0 4267,-6 4267,-12 4267,-12 4267,-71 4267,-71 4267,-77 4261,-83 4255,-83"/>
<text xml:space="preserve" text-anchor="middle" x="4062.88" y="-65.7" font-family="Helvetica,sans-Serif" font-size="14.00">artifact 9</text>
<text xml:space="preserve" text-anchor="middle" x="4062.88" y="-50.7" font-family="Helvetica,sans-Serif" font-size="14.00">/Users/alex/areas/productive/orchestration/run&#45;4Lja346d/artifact&#45;9</text>
<text xml:space="preserve" text-anchor="middle" x="4062.88" y="-35.7" font-family="Helvetica,sans-Serif" font-size="14.00">operation: model</text>
<text xml:space="preserve" text-anchor="middle" x="4062.88" y="-20.7" font-family="Helvetica,sans-Serif" font-size="14.00">flow_kind: fk_model</text>
<text xml:space="preserve" text-anchor="middle" x="4062.88" y="-5.7" font-family="Helvetica,sans-Serif" font-size="14.00">request_id: i:3</text>
</g>
<!-- n8&#45;&gt;n9 -->
<g id="edge9" class="edge">
<title>n8&#45;&gt;n9</title>
<path fill="none" stroke="#555555" d="M3822.95,-41.5C3831.98,-41.5 3841.06,-41.5 3850.11,-41.5"/>
<polygon fill="#555555" stroke="#555555" points="3849.9,-43.95 3856.9,-41.5 3849.9,-39.05 3849.9,-43.95"/>
</g>
<!-- n10 -->
<g id="node11" class="node">
<title>n10</title>
<path fill="#ffffff" stroke="black" d="M4706.75,-75.5C4706.75,-75.5 4315,-75.5 4315,-75.5 4309,-75.5 4303,-69.5 4303,-63.5 4303,-63.5 4303,-19.5 4303,-19.5 4303,-13.5 4309,-7.5 4315,-7.5 4315,-7.5 4706.75,-7.5 4706.75,-7.5 4712.75,-7.5 4718.75,-13.5 4718.75,-19.5 4718.75,-19.5 4718.75,-63.5 4718.75,-63.5 4718.75,-69.5 4712.75,-75.5 4706.75,-75.5"/>
<text xml:space="preserve" text-anchor="middle" x="4510.88" y="-58.2" font-family="Helvetica,sans-Serif" font-size="14.00">artifact 10</text>
<text xml:space="preserve" text-anchor="middle" x="4510.88" y="-43.2" font-family="Helvetica,sans-Serif" font-size="14.00">/Users/alex/areas/productive/orchestration/run&#45;4Lja346d/artifact&#45;10</text>
<text xml:space="preserve" text-anchor="middle" x="4510.88" y="-28.2" font-family="Helvetica,sans-Serif" font-size="14.00">operation: raw</text>
<text xml:space="preserve" text-anchor="middle" x="4510.88" y="-13.2" font-family="Helvetica,sans-Serif" font-size="14.00">flow_kind: fk_raw</text>
</g>
<!-- n9&#45;&gt;n10 -->
<g id="edge10" class="edge">
<title>n9&#45;&gt;n10</title>
<path fill="none" stroke="#555555" d="M4267.3,-41.5C4276.27,-41.5 4285.28,-41.5 4294.28,-41.5"/>
<polygon fill="#555555" stroke="#555555" points="4294.02,-43.95 4301.02,-41.5 4294.02,-39.05 4294.02,-43.95"/>
</g>
<!-- n11 -->
<g id="node12" class="node">
<title>n11</title>
<path fill="#ffffff" stroke="black" d="M5158.5,-83C5158.5,-83 4766.75,-83 4766.75,-83 4760.75,-83 4754.75,-77 4754.75,-71 4754.75,-71 4754.75,-12 4754.75,-12 4754.75,-6 4760.75,0 4766.75,0 4766.75,0 5158.5,0 5158.5,0 5164.5,0 5170.5,-6 5170.5,-12 5170.5,-12 5170.5,-71 5170.5,-71 5170.5,-77 5164.5,-83 5158.5,-83"/>
<text xml:space="preserve" text-anchor="middle" x="4962.62" y="-65.7" font-family="Helvetica,sans-Serif" font-size="14.00">artifact 11</text>
<text xml:space="preserve" text-anchor="middle" x="4962.62" y="-50.7" font-family="Helvetica,sans-Serif" font-size="14.00">/Users/alex/areas/productive/orchestration/run&#45;4Lja346d/artifact&#45;11</text>
<text xml:space="preserve" text-anchor="middle" x="4962.62" y="-35.7" font-family="Helvetica,sans-Serif" font-size="14.00">operation: model</text>
<text xml:space="preserve" text-anchor="middle" x="4962.62" y="-20.7" font-family="Helvetica,sans-Serif" font-size="14.00">flow_kind: fk_model</text>
<text xml:space="preserve" text-anchor="middle" x="4962.62" y="-5.7" font-family="Helvetica,sans-Serif" font-size="14.00">request_id: i:4</text>
</g>
<!-- n10&#45;&gt;n11 -->
<g id="edge11" class="edge">
<title>n10&#45;&gt;n11</title>
<path fill="none" stroke="#555555" d="M4718.98,-41.5C4727.98,-41.5 4737.02,-41.5 4746.04,-41.5"/>
<polygon fill="#555555" stroke="#555555" points="4745.8,-43.95 4752.8,-41.5 4745.8,-39.05 4745.8,-43.95"/>
</g>
<!-- n12 -->
<g id="node13" class="node">
<title>n12</title>
<path fill="#ffffff" stroke="black" d="M5610.25,-75.5C5610.25,-75.5 5218.5,-75.5 5218.5,-75.5 5212.5,-75.5 5206.5,-69.5 5206.5,-63.5 5206.5,-63.5 5206.5,-19.5 5206.5,-19.5 5206.5,-13.5 5212.5,-7.5 5218.5,-7.5 5218.5,-7.5 5610.25,-7.5 5610.25,-7.5 5616.25,-7.5 5622.25,-13.5 5622.25,-19.5 5622.25,-19.5 5622.25,-63.5 5622.25,-63.5 5622.25,-69.5 5616.25,-75.5 5610.25,-75.5"/>
<text xml:space="preserve" text-anchor="middle" x="5414.38" y="-58.2" font-family="Helvetica,sans-Serif" font-size="14.00">artifact 12</text>
<text xml:space="preserve" text-anchor="middle" x="5414.38" y="-43.2" font-family="Helvetica,sans-Serif" font-size="14.00">/Users/alex/areas/productive/orchestration/run&#45;4Lja346d/artifact&#45;12</text>
<text xml:space="preserve" text-anchor="middle" x="5414.38" y="-28.2" font-family="Helvetica,sans-Serif" font-size="14.00">operation: raw</text>
<text xml:space="preserve" text-anchor="middle" x="5414.38" y="-13.2" font-family="Helvetica,sans-Serif" font-size="14.00">flow_kind: fk_raw</text>
</g>
<!-- n11&#45;&gt;n12 -->
<g id="edge12" class="edge">
<title>n11&#45;&gt;n12</title>
<path fill="none" stroke="#555555" d="M5170.73,-41.5C5179.73,-41.5 5188.77,-41.5 5197.79,-41.5"/>
<polygon fill="#555555" stroke="#555555" points="5197.55,-43.95 5204.55,-41.5 5197.55,-39.05 5197.55,-43.95"/>
</g>
<!-- n13 -->
<g id="node14" class="node">
<title>n13</title>
<path fill="#ffffff" stroke="black" d="M6062,-83C6062,-83 5670.25,-83 5670.25,-83 5664.25,-83 5658.25,-77 5658.25,-71 5658.25,-71 5658.25,-12 5658.25,-12 5658.25,-6 5664.25,0 5670.25,0 5670.25,0 6062,0 6062,0 6068,0 6074,-6 6074,-12 6074,-12 6074,-71 6074,-71 6074,-77 6068,-83 6062,-83"/>
<text xml:space="preserve" text-anchor="middle" x="5866.12" y="-65.7" font-family="Helvetica,sans-Serif" font-size="14.00">artifact 13</text>
<text xml:space="preserve" text-anchor="middle" x="5866.12" y="-50.7" font-family="Helvetica,sans-Serif" font-size="14.00">/Users/alex/areas/productive/orchestration/run&#45;4Lja346d/artifact&#45;13</text>
<text xml:space="preserve" text-anchor="middle" x="5866.12" y="-35.7" font-family="Helvetica,sans-Serif" font-size="14.00">operation: model</text>
<text xml:space="preserve" text-anchor="middle" x="5866.12" y="-20.7" font-family="Helvetica,sans-Serif" font-size="14.00">flow_kind: fk_model</text>
<text xml:space="preserve" text-anchor="middle" x="5866.12" y="-5.7" font-family="Helvetica,sans-Serif" font-size="14.00">request_id: i:5</text>
</g>
<!-- n12&#45;&gt;n13 -->
<g id="edge13" class="edge">
<title>n12&#45;&gt;n13</title>
<path fill="none" stroke="#555555" d="M5622.48,-41.5C5631.48,-41.5 5640.52,-41.5 5649.54,-41.5"/>
<polygon fill="#555555" stroke="#555555" points="5649.3,-43.95 5656.3,-41.5 5649.3,-39.05 5649.3,-43.95"/>
</g>
<!-- n14 -->
<g id="node15" class="node">
<title>n14</title>
<path fill="#ffffff" stroke="black" d="M6513.75,-75.5C6513.75,-75.5 6122,-75.5 6122,-75.5 6116,-75.5 6110,-69.5 6110,-63.5 6110,-63.5 6110,-19.5 6110,-19.5 6110,-13.5 6116,-7.5 6122,-7.5 6122,-7.5 6513.75,-7.5 6513.75,-7.5 6519.75,-7.5 6525.75,-13.5 6525.75,-19.5 6525.75,-19.5 6525.75,-63.5 6525.75,-63.5 6525.75,-69.5 6519.75,-75.5 6513.75,-75.5"/>
<text xml:space="preserve" text-anchor="middle" x="6317.88" y="-58.2" font-family="Helvetica,sans-Serif" font-size="14.00">artifact 14</text>
<text xml:space="preserve" text-anchor="middle" x="6317.88" y="-43.2" font-family="Helvetica,sans-Serif" font-size="14.00">/Users/alex/areas/productive/orchestration/run&#45;4Lja346d/artifact&#45;14</text>
<text xml:space="preserve" text-anchor="middle" x="6317.88" y="-28.2" font-family="Helvetica,sans-Serif" font-size="14.00">operation: raw</text>
<text xml:space="preserve" text-anchor="middle" x="6317.88" y="-13.2" font-family="Helvetica,sans-Serif" font-size="14.00">flow_kind: fk_raw</text>
</g>
<!-- n13&#45;&gt;n14 -->
<g id="edge14" class="edge">
<title>n13&#45;&gt;n14</title>
<path fill="none" stroke="#555555" d="M6074.23,-41.5C6083.23,-41.5 6092.27,-41.5 6101.29,-41.5"/>
<polygon fill="#555555" stroke="#555555" points="6101.05,-43.95 6108.05,-41.5 6101.05,-39.05 6101.05,-43.95"/>
</g>
<!-- n15 -->
<g id="node16" class="node">
<title>n15</title>
<path fill="#ffffff" stroke="black" d="M6965.5,-83C6965.5,-83 6573.75,-83 6573.75,-83 6567.75,-83 6561.75,-77 6561.75,-71 6561.75,-71 6561.75,-12 6561.75,-12 6561.75,-6 6567.75,0 6573.75,0 6573.75,0 6965.5,0 6965.5,0 6971.5,0 6977.5,-6 6977.5,-12 6977.5,-12 6977.5,-71 6977.5,-71 6977.5,-77 6971.5,-83 6965.5,-83"/>
<text xml:space="preserve" text-anchor="middle" x="6769.62" y="-65.7" font-family="Helvetica,sans-Serif" font-size="14.00">artifact 15</text>
<text xml:space="preserve" text-anchor="middle" x="6769.62" y="-50.7" font-family="Helvetica,sans-Serif" font-size="14.00">/Users/alex/areas/productive/orchestration/run&#45;4Lja346d/artifact&#45;15</text>
<text xml:space="preserve" text-anchor="middle" x="6769.62" y="-35.7" font-family="Helvetica,sans-Serif" font-size="14.00">operation: model</text>
<text xml:space="preserve" text-anchor="middle" x="6769.62" y="-20.7" font-family="Helvetica,sans-Serif" font-size="14.00">flow_kind: fk_model</text>
<text xml:space="preserve" text-anchor="middle" x="6769.62" y="-5.7" font-family="Helvetica,sans-Serif" font-size="14.00">request_id: i:6</text>
</g>
<!-- n14&#45;&gt;n15 -->
<g id="edge15" class="edge">
<title>n14&#45;&gt;n15</title>
<path fill="none" stroke="#555555" d="M6525.98,-41.5C6534.98,-41.5 6544.02,-41.5 6553.04,-41.5"/>
<polygon fill="#555555" stroke="#555555" points="6552.8,-43.95 6559.8,-41.5 6552.8,-39.05 6552.8,-43.95"/>
</g>
<!-- n16 -->
<g id="node17" class="node">
<title>n16</title>
<path fill="#ffffff" stroke="black" d="M7417.25,-75.5C7417.25,-75.5 7025.5,-75.5 7025.5,-75.5 7019.5,-75.5 7013.5,-69.5 7013.5,-63.5 7013.5,-63.5 7013.5,-19.5 7013.5,-19.5 7013.5,-13.5 7019.5,-7.5 7025.5,-7.5 7025.5,-7.5 7417.25,-7.5 7417.25,-7.5 7423.25,-7.5 7429.25,-13.5 7429.25,-19.5 7429.25,-19.5 7429.25,-63.5 7429.25,-63.5 7429.25,-69.5 7423.25,-75.5 7417.25,-75.5"/>
<text xml:space="preserve" text-anchor="middle" x="7221.38" y="-58.2" font-family="Helvetica,sans-Serif" font-size="14.00">artifact 16</text>
<text xml:space="preserve" text-anchor="middle" x="7221.38" y="-43.2" font-family="Helvetica,sans-Serif" font-size="14.00">/Users/alex/areas/productive/orchestration/run&#45;4Lja346d/artifact&#45;16</text>
<text xml:space="preserve" text-anchor="middle" x="7221.38" y="-28.2" font-family="Helvetica,sans-Serif" font-size="14.00">operation: raw</text>
<text xml:space="preserve" text-anchor="middle" x="7221.38" y="-13.2" font-family="Helvetica,sans-Serif" font-size="14.00">flow_kind: fk_raw</text>
</g>
<!-- n15&#45;&gt;n16 -->
<g id="edge16" class="edge">
<title>n15&#45;&gt;n16</title>
<path fill="none" stroke="#555555" d="M6977.73,-41.5C6986.73,-41.5 6995.77,-41.5 7004.79,-41.5"/>
<polygon fill="#555555" stroke="#555555" points="7004.55,-43.95 7011.55,-41.5 7004.55,-39.05 7004.55,-43.95"/>
</g>
<!-- n17 -->
<g id="node18" class="node">
<title>n17</title>
<path fill="#ffffff" stroke="black" d="M7869,-83C7869,-83 7477.25,-83 7477.25,-83 7471.25,-83 7465.25,-77 7465.25,-71 7465.25,-71 7465.25,-12 7465.25,-12 7465.25,-6 7471.25,0 7477.25,0 7477.25,0 7869,0 7869,0 7875,0 7881,-6 7881,-12 7881,-12 7881,-71 7881,-71 7881,-77 7875,-83 7869,-83"/>
<text xml:space="preserve" text-anchor="middle" x="7673.12" y="-65.7" font-family="Helvetica,sans-Serif" font-size="14.00">artifact 17</text>
<text xml:space="preserve" text-anchor="middle" x="7673.12" y="-50.7" font-family="Helvetica,sans-Serif" font-size="14.00">/Users/alex/areas/productive/orchestration/run&#45;4Lja346d/artifact&#45;17</text>
<text xml:space="preserve" text-anchor="middle" x="7673.12" y="-35.7" font-family="Helvetica,sans-Serif" font-size="14.00">operation: model</text>
<text xml:space="preserve" text-anchor="middle" x="7673.12" y="-20.7" font-family="Helvetica,sans-Serif" font-size="14.00">flow_kind: fk_model</text>
<text xml:space="preserve" text-anchor="middle" x="7673.12" y="-5.7" font-family="Helvetica,sans-Serif" font-size="14.00">request_id: i:7</text>
</g>
<!-- n16&#45;&gt;n17 -->
<g id="edge17" class="edge">
<title>n16&#45;&gt;n17</title>
<path fill="none" stroke="#555555" d="M7429.48,-41.5C7438.48,-41.5 7447.52,-41.5 7456.54,-41.5"/>
<polygon fill="#555555" stroke="#555555" points="7456.3,-43.95 7463.3,-41.5 7456.3,-39.05 7456.3,-43.95"/>
</g>
<!-- n18 -->
<g id="node19" class="node">
<title>n18</title>
<path fill="#ffffff" stroke="black" d="M8320.75,-75.5C8320.75,-75.5 7929,-75.5 7929,-75.5 7923,-75.5 7917,-69.5 7917,-63.5 7917,-63.5 7917,-19.5 7917,-19.5 7917,-13.5 7923,-7.5 7929,-7.5 7929,-7.5 8320.75,-7.5 8320.75,-7.5 8326.75,-7.5 8332.75,-13.5 8332.75,-19.5 8332.75,-19.5 8332.75,-63.5 8332.75,-63.5 8332.75,-69.5 8326.75,-75.5 8320.75,-75.5"/>
<text xml:space="preserve" text-anchor="middle" x="8124.88" y="-58.2" font-family="Helvetica,sans-Serif" font-size="14.00">artifact 18</text>
<text xml:space="preserve" text-anchor="middle" x="8124.88" y="-43.2" font-family="Helvetica,sans-Serif" font-size="14.00">/Users/alex/areas/productive/orchestration/run&#45;4Lja346d/artifact&#45;18</text>
<text xml:space="preserve" text-anchor="middle" x="8124.88" y="-28.2" font-family="Helvetica,sans-Serif" font-size="14.00">operation: raw</text>
<text xml:space="preserve" text-anchor="middle" x="8124.88" y="-13.2" font-family="Helvetica,sans-Serif" font-size="14.00">flow_kind: fk_raw</text>
</g>
<!-- n17&#45;&gt;n18 -->
<g id="edge18" class="edge">
<title>n17&#45;&gt;n18</title>
<path fill="none" stroke="#555555" d="M7881.23,-41.5C7890.23,-41.5 7899.27,-41.5 7908.29,-41.5"/>
<polygon fill="#555555" stroke="#555555" points="7908.05,-43.95 7915.05,-41.5 7908.05,-39.05 7908.05,-43.95"/>
</g>
<!-- n19 -->
<g id="node20" class="node">
<title>n19</title>
<path fill="#ffffff" stroke="black" d="M8772.5,-83C8772.5,-83 8380.75,-83 8380.75,-83 8374.75,-83 8368.75,-77 8368.75,-71 8368.75,-71 8368.75,-12 8368.75,-12 8368.75,-6 8374.75,0 8380.75,0 8380.75,0 8772.5,0 8772.5,0 8778.5,0 8784.5,-6 8784.5,-12 8784.5,-12 8784.5,-71 8784.5,-71 8784.5,-77 8778.5,-83 8772.5,-83"/>
<text xml:space="preserve" text-anchor="middle" x="8576.62" y="-65.7" font-family="Helvetica,sans-Serif" font-size="14.00">artifact 19</text>
<text xml:space="preserve" text-anchor="middle" x="8576.62" y="-50.7" font-family="Helvetica,sans-Serif" font-size="14.00">/Users/alex/areas/productive/orchestration/run&#45;4Lja346d/artifact&#45;19</text>
<text xml:space="preserve" text-anchor="middle" x="8576.62" y="-35.7" font-family="Helvetica,sans-Serif" font-size="14.00">operation: model</text>
<text xml:space="preserve" text-anchor="middle" x="8576.62" y="-20.7" font-family="Helvetica,sans-Serif" font-size="14.00">flow_kind: fk_model</text>
<text xml:space="preserve" text-anchor="middle" x="8576.62" y="-5.7" font-family="Helvetica,sans-Serif" font-size="14.00">request_id: i:8</text>
</g>
<!-- n18&#45;&gt;n19 -->
<g id="edge19" class="edge">
<title>n18&#45;&gt;n19</title>
<path fill="none" stroke="#555555" d="M8332.98,-41.5C8341.98,-41.5 8351.02,-41.5 8360.04,-41.5"/>
<polygon fill="#555555" stroke="#555555" points="8359.8,-43.95 8366.8,-41.5 8359.8,-39.05 8359.8,-43.95"/>
</g>
<!-- n20 -->
<g id="node21" class="node">
<title>n20</title>
<path fill="#ffffff" stroke="black" d="M9224.25,-75.5C9224.25,-75.5 8832.5,-75.5 8832.5,-75.5 8826.5,-75.5 8820.5,-69.5 8820.5,-63.5 8820.5,-63.5 8820.5,-19.5 8820.5,-19.5 8820.5,-13.5 8826.5,-7.5 8832.5,-7.5 8832.5,-7.5 9224.25,-7.5 9224.25,-7.5 9230.25,-7.5 9236.25,-13.5 9236.25,-19.5 9236.25,-19.5 9236.25,-63.5 9236.25,-63.5 9236.25,-69.5 9230.25,-75.5 9224.25,-75.5"/>
<text xml:space="preserve" text-anchor="middle" x="9028.38" y="-58.2" font-family="Helvetica,sans-Serif" font-size="14.00">artifact 20</text>
<text xml:space="preserve" text-anchor="middle" x="9028.38" y="-43.2" font-family="Helvetica,sans-Serif" font-size="14.00">/Users/alex/areas/productive/orchestration/run&#45;4Lja346d/artifact&#45;20</text>
<text xml:space="preserve" text-anchor="middle" x="9028.38" y="-28.2" font-family="Helvetica,sans-Serif" font-size="14.00">operation: raw</text>
<text xml:space="preserve" text-anchor="middle" x="9028.38" y="-13.2" font-family="Helvetica,sans-Serif" font-size="14.00">flow_kind: fk_raw</text>
</g>
<!-- n19&#45;&gt;n20 -->
<g id="edge20" class="edge">
<title>n19&#45;&gt;n20</title>
<path fill="none" stroke="#555555" d="M8784.73,-41.5C8793.73,-41.5 8802.77,-41.5 8811.79,-41.5"/>
<polygon fill="#555555" stroke="#555555" points="8811.55,-43.95 8818.55,-41.5 8811.55,-39.05 8811.55,-43.95"/>
</g>
</g>
</svg>
